<svg width="490" height="504" viewBox="0 0 490 504" fill="none" xmlns="http://www.w3.org/2000/svg">
<path d="M0.0404995 353.878C0.0404995 317.111 0.0124972 280.344 0.0404995 243.563C0.138508 138.723 68.6882 43.4168 169.132 12.7123C266.202 -16.9702 351.889 5.54366 422.707 77.9856C466.923 123.209 488.499 179.354 488.989 242.723C489.591 319.057 489.031 395.392 489.241 471.712C489.283 485.139 486.118 496.34 472.579 501.604C468.407 503.229 463.493 503.453 458.914 503.467C425.871 503.621 392.815 503.243 359.786 503.691C341.094 503.943 330.552 490.389 330.874 474.61C331.672 434.833 331.112 395.042 331.154 355.25C331.182 339.163 341.627 328.83 357.742 328.494C367.249 328.298 376.895 328.676 386.206 327.15C399.885 324.91 412.626 312.267 412.99 298.588C413.816 267.295 416.785 235.807 409.336 204.78C391.261 129.482 323.341 75.7314 245.999 75.5774C158.38 75.4094 86.3576 138.135 76.2908 225.222C73.5605 248.87 74.8486 273.12 75.8007 297.02C76.4868 314.395 92.6161 328.018 110.118 328.382C117.328 328.536 124.553 328.256 131.749 328.466C147.417 328.9 157.903 339.499 157.931 355.068C158.001 395.798 158.001 436.527 157.931 477.242C157.903 492.196 147.977 503.061 132.841 503.243C96.7745 503.691 60.7075 503.691 24.6405 503.341C10.2753 503.201 0.0685018 491.93 0.0404995 477.452C-0.0295063 436.261 0.0124965 395.07 0.0124965 353.878H0.0404995Z" fill="black"/>
<path d="M241.996 121.448C248.675 121.462 253.799 126.671 253.911 134.231C254.121 147.967 254.107 161.688 253.953 175.423C253.952 175.521 253.954 175.618 253.954 175.714C263.795 178.023 272.541 183.173 279.277 190.254C289.291 184.492 299.591 178.559 309.901 172.637C311.511 171.713 313.108 170.732 314.746 169.878C322.139 166.014 328.677 167.471 332.22 173.743C335.58 179.694 333.563 185.994 326.577 190.124C315.18 196.873 303.685 203.453 292.162 209.978C291.808 210.178 291.47 210.377 291.146 210.575C292.583 215.293 293.357 220.3 293.357 225.488C293.357 230.536 292.624 235.413 291.262 240.019C298.994 244.508 307.466 249.434 315.936 254.361C319.745 256.573 323.623 258.702 327.348 261.068C333.676 265.087 335.509 271.443 332.191 277.184C328.831 282.994 322.362 284.953 315.88 281.411C304.665 275.293 293.562 268.951 282.67 262.272C281.57 261.598 280.505 260.994 279.467 260.517C272.747 267.657 263.998 272.867 254.139 275.219C253.623 277.647 253.592 280.429 253.827 283.498C254.639 294.139 254.121 304.892 253.939 315.603C253.799 324.255 248.73 329.786 241.632 329.478C234.771 329.183 230.529 323.863 230.501 315.309C230.459 302.05 230.375 288.776 230.585 275.517C230.586 275.437 230.584 275.358 230.584 275.28C220.629 272.961 211.793 267.732 205.016 260.54C202.91 261.291 200.752 262.54 198.48 264.036C189.38 270.043 179.677 275.125 170.17 280.529C162.595 284.842 155.511 283.469 152.039 277.169C148.511 270.771 150.961 264.429 158.745 259.906C169.806 253.494 180.783 246.94 192.012 240.836C192.446 240.6 192.852 240.362 193.23 240.119C191.848 235.484 191.105 230.573 191.105 225.488C191.105 220.393 191.852 215.472 193.239 210.828C191.688 209.513 189.745 208.368 187.574 207.247C177.465 202.025 167.748 196.046 157.891 190.348C152.823 187.421 149.869 183.263 150.835 177.145C152.137 168.982 160.776 165.132 168.728 169.515C180.727 176.137 192.572 183.053 204.347 190.054C204.574 190.189 204.799 190.316 205.018 190.435C211.782 183.257 220.597 178.034 230.528 175.708C230.577 175 230.586 174.247 230.571 173.448C230.347 160.427 230.432 147.392 230.516 134.357C230.572 126.489 235.178 121.434 241.996 121.448Z" fill="black"/>
</svg>
