<svg width="97" height="97" viewBox="0 0 97 97" fill="none" xmlns="http://www.w3.org/2000/svg">
<g filter="url(#filter0_i_36_3453)">
<path d="M56.1455 37.5534C55.0033 36.6893 53.7686 35.9548 52.4642 35.3634C49.0073 33.7826 45.1699 33.2259 41.4062 33.7588C36.181 34.4888 31.4634 37.274 28.3 41.4963L12.9464 61.932C9.78759 66.1414 8.42622 71.4314 9.16078 76.6427C10.6936 87.5175 20.7518 95.0907 31.6266 93.5578C36.8449 92.8374 41.5594 90.0628 44.7228 85.8505L57.3984 68.993C57.629 68.689 57.7275 68.3049 57.6718 67.9275C57.5574 67.1514 56.8354 66.6151 56.0593 66.7296L55.4968 66.8092C52.4132 67.2569 49.2717 67.0974 46.2494 66.3399C45.6922 66.1977 45.1043 66.4057 44.7604 66.8663L35.648 79.0017C32.8177 82.7657 27.4721 83.5226 23.7082 80.6924C19.9442 77.8622 19.1873 72.5166 22.0175 68.7526L37.4354 48.2648C40.264 44.5079 45.6009 43.7522 49.3612 46.5761C51.8774 48.3512 55.3406 47.8608 57.2648 45.4569C58.0846 44.3656 58.4842 43.0156 58.3904 41.6537C58.2649 40.0282 57.4474 38.5347 56.1455 37.5534Z" fill="url(#paint0_linear_36_3453)"/>
</g>
<path d="M41.4628 34.165L41.4638 34.1649C45.1499 33.6429 48.9083 34.188 52.294 35.7362L52.2949 35.7361C53.5717 36.315 54.7808 37.0341 55.8987 37.8799L55.8988 37.8809C57.1059 38.7908 57.8644 40.175 57.9816 41.6821C58.0686 42.9456 57.6972 44.1976 56.9367 45.2101C55.1488 47.4334 51.9424 47.8876 49.6074 46.2479C45.6664 43.2885 40.0727 44.0807 37.1081 48.0179L37.1082 48.0188L21.6896 68.506C18.7235 72.4507 19.517 78.0535 23.4616 81.0198C27.2832 83.8933 32.6612 83.239 35.6902 79.6088L35.9754 79.2478L45.0876 67.1121L45.0885 67.111C45.3332 66.7834 45.7517 66.636 46.1481 66.7371L46.1501 66.7378C49.2235 67.5081 52.4181 67.6692 55.5539 67.2141L55.5541 67.215L56.1187 67.1351C56.671 67.0536 57.1848 67.4354 57.2662 67.9875C57.3057 68.2561 57.2355 68.5289 57.0716 68.7449L57.0709 68.747L44.3952 85.6047C41.2974 89.7295 36.6807 92.4466 31.5708 93.1521L31.5699 93.1523C20.9191 94.6535 11.0681 87.236 9.56688 76.5852C8.87003 71.641 10.0988 66.6243 12.9889 62.5676L13.274 62.178L28.6279 41.7425C31.7258 37.6076 36.3458 34.8799 41.4628 34.165Z" stroke="white" stroke-opacity="0.5" stroke-width="0.819471"/>
<g filter="url(#filter1_i_36_3453)">
<path d="M79.433 6.58365C70.6548 -0.0168447 58.188 1.74848 51.5875 10.5266L38.9219 27.3539C38.5745 27.8184 38.5443 28.4472 38.8457 28.9428C39.1446 29.4403 39.7161 29.7058 40.289 29.6134L40.8093 29.5397C43.8901 29.0978 47.0273 29.2626 50.0448 30.0252C50.602 30.1674 51.1898 29.9594 51.5338 29.4988L60.626 17.4236C63.4562 13.6596 68.8018 12.9027 72.5658 15.7329C76.3298 18.5631 77.0867 23.9087 74.2565 27.6727L62.9309 42.718L62.8363 42.8605L58.8728 48.0983C56.0442 51.8552 50.7073 52.6109 46.947 49.7871C44.4308 48.0119 40.9676 48.5023 39.0434 50.9062C38.2185 52.0056 37.82 53.3667 37.9218 54.7374C38.0471 56.3629 38.8646 57.8565 40.1666 58.838C42.0258 60.2422 44.1191 61.3056 46.3494 61.9791C46.6647 62.0778 46.9759 62.1486 47.2892 62.2333C47.6024 62.3181 47.9257 62.3727 48.237 62.4434C48.5483 62.5142 48.8715 62.5688 49.1788 62.6113L50.0405 62.7188C50.6228 62.7797 51.2014 62.8126 51.7918 62.8293C52.5009 62.8342 53.2097 62.8009 53.9152 62.7296L54.8996 62.5902L54.984 62.5782L55.8139 62.3603C56.1212 62.3025 56.4348 62.1864 56.8005 62.1346L57.2786 62.0669L58.229 61.7889L58.6672 61.6408L59.4589 61.3565L59.6136 61.3346C62.9452 59.9777 65.8463 57.7425 68.0079 54.8668L83.3754 34.4292C89.9764 25.651 88.2111 13.1841 79.433 6.58365Z" fill="url(#paint1_linear_36_3453)"/>
</g>
<path d="M51.9148 10.7729C58.3793 2.17565 70.5894 0.446691 79.1867 6.91116C87.7839 13.3756 89.5133 25.5857 83.0484 34.183L67.68 54.6207C65.572 57.425 62.7458 59.6068 59.5004 60.9373L59.3602 60.9571L59.3207 60.9706L58.5361 61.2524L58.1059 61.3981L57.1901 61.6659L56.7434 61.7291C56.5358 61.7585 56.3467 61.8057 56.1814 61.8491C56.0092 61.8944 55.8733 61.9318 55.7381 61.9573L55.7237 61.9603L55.7095 61.9643L54.9051 62.1758L53.8743 62.3218C53.1859 62.3914 52.4941 62.4244 51.8022 62.4199L51.8031 62.4198C51.2222 62.4033 50.6562 62.3707 50.0884 62.3115L49.229 62.2043L49.228 62.2045C48.9307 62.1632 48.6218 62.1109 48.3275 62.044C47.9818 61.9654 47.7025 61.9206 47.3958 61.8376C47.0604 61.7469 46.7779 61.6837 46.4717 61.5878L46.4677 61.5873L46.0599 61.4587C44.0285 60.7958 42.12 59.8004 40.4132 58.5113L40.413 58.5103C39.2052 57.5996 38.4459 56.2134 38.3297 54.7053C38.236 53.4382 38.6036 52.1799 39.3636 51.162C41.1524 48.9276 44.3713 48.4718 46.7103 50.1217C50.5277 52.9808 55.8898 52.3248 58.9143 48.7043L59.1998 48.3453L63.1629 43.108L63.1703 43.0981L63.1777 43.0872L63.2653 42.9535L74.5837 27.9193C77.5499 23.9745 76.7565 18.3717 72.8117 15.4055C68.9902 12.5322 63.6131 13.1864 60.584 16.8164L60.2988 17.1773L51.2066 29.252L51.2059 29.2541C50.9612 29.5817 50.5427 29.729 50.1463 29.628L50.1453 29.6281C47.0763 28.8525 43.8852 28.6842 40.7518 29.1336L40.2316 29.2073L40.224 29.2093C39.8164 29.2751 39.4093 29.0854 39.1966 28.7315L39.1954 28.7297C38.9814 28.3774 39.0031 27.9308 39.2495 27.6006L51.9148 10.7729Z" stroke="white" stroke-opacity="0.5" stroke-width="0.819471"/>
<defs>
<filter id="filter0_i_36_3453" x="8.96606" y="33.5624" width="49.4377" height="60.1926" filterUnits="userSpaceOnUse" color-interpolation-filters="sRGB">
<feFlood flood-opacity="0" result="BackgroundImageFix"/>
<feBlend mode="normal" in="SourceGraphic" in2="BackgroundImageFix" result="shape"/>
<feColorMatrix in="SourceAlpha" type="matrix" values="0 0 0 0 0 0 0 0 0 0 0 0 0 0 0 0 0 0 127 0" result="hardAlpha"/>
<feMorphology radius="18.8478" operator="dilate" in="SourceAlpha" result="effect1_innerShadow_36_3453"/>
<feOffset dy="2.45841"/>
<feGaussianBlur stdDeviation="2.70426"/>
<feComposite in2="hardAlpha" operator="arithmetic" k2="-1" k3="1"/>
<feColorMatrix type="matrix" values="0 0 0 0 1 0 0 0 0 1 0 0 0 0 1 0 0 0 1 0"/>
<feBlend mode="normal" in2="shape" result="effect1_innerShadow_36_3453"/>
</filter>
<filter id="filter1_i_36_3453" x="37.9062" y="2.59058" width="49.4626" height="60.2393" filterUnits="userSpaceOnUse" color-interpolation-filters="sRGB">
<feFlood flood-opacity="0" result="BackgroundImageFix"/>
<feBlend mode="normal" in="SourceGraphic" in2="BackgroundImageFix" result="shape"/>
<feColorMatrix in="SourceAlpha" type="matrix" values="0 0 0 0 0 0 0 0 0 0 0 0 0 0 0 0 0 0 127 0" result="hardAlpha"/>
<feMorphology radius="18.8478" operator="dilate" in="SourceAlpha" result="effect1_innerShadow_36_3453"/>
<feOffset dy="2.45841"/>
<feGaussianBlur stdDeviation="2.70426"/>
<feComposite in2="hardAlpha" operator="arithmetic" k2="-1" k3="1"/>
<feColorMatrix type="matrix" values="0 0 0 0 1 0 0 0 0 1 0 0 0 0 1 0 0 0 1 0"/>
<feBlend mode="normal" in2="shape" result="effect1_innerShadow_36_3453"/>
</filter>
<linearGradient id="paint0_linear_36_3453" x1="43.1957" y1="24.8152" x2="20.976" y2="128.093" gradientUnits="userSpaceOnUse">
<stop stop-color="#71647A"/>
<stop offset="1"/>
</linearGradient>
<linearGradient id="paint1_linear_36_3453" x1="70.6005" y1="-6.73856" x2="48.3962" y2="96.5508" gradientUnits="userSpaceOnUse">
<stop stop-color="#71647A"/>
<stop offset="1"/>
</linearGradient>
</defs>
</svg>
