<svg width="81" height="86" viewBox="0 0 81 86" fill="none" xmlns="http://www.w3.org/2000/svg">
<g filter="url(#filter0_i_144_509)">
<path d="M68.1891 0C75.1789 0 80.8581 5.67921 80.8581 12.669C80.8581 19.6588 75.1789 25.338 68.1891 25.338C64.9646 25.338 61.865 24.0898 59.4935 21.8639C59.1606 21.5727 58.7029 21.5103 58.3077 21.7183L25.8134 39.3592C25.4182 39.5673 25.2102 40.0041 25.2934 40.441C25.439 41.2107 25.5014 41.9804 25.5014 42.7085C25.5014 43.4366 25.439 44.2063 25.2934 44.976C25.2102 45.4129 25.4182 45.8498 25.8134 46.0578L58.3077 63.7195C58.7029 63.9275 59.1814 63.8651 59.4935 63.5739C61.865 61.3272 64.9438 60.0998 68.1891 60.0998C75.1581 60.0998 80.8373 65.779 80.8373 72.748C80.8373 79.7378 75.1581 85.417 68.1683 85.417C61.1785 85.417 55.4993 79.7378 55.4993 72.748C55.4993 71.9991 55.5617 71.2502 55.7073 70.4805C55.7905 70.0436 55.5825 69.6067 55.1872 69.3987L22.693 51.7578C22.5474 51.6746 22.381 51.633 22.2145 51.633C21.9649 51.633 21.7153 51.737 21.5072 51.9034C19.1357 54.1501 16.0569 55.3775 12.8116 55.3775C5.82179 55.3775 0.142578 49.6983 0.142578 42.7085C0.142578 35.7187 5.82179 30.0395 12.8116 30.0187C16.036 30.0187 19.1357 31.2669 21.5072 33.4928C21.8401 33.784 22.2977 33.8464 22.693 33.6384L55.208 16.0183C55.6033 15.8103 55.8113 15.3734 55.7281 14.9365C55.5825 14.1668 55.5201 13.3971 55.5201 12.669C55.5201 5.67921 61.1993 0 68.1891 0Z" fill="url(#paint0_linear_144_509)"/>
</g>
<path d="M68.1895 0.958984C74.6493 0.959175 79.8984 6.20907 79.8984 12.6689C79.8984 19.1288 74.6493 24.3787 68.1895 24.3789C65.2143 24.3789 62.3481 23.2268 60.1504 21.1641L60.1377 21.1533L60.125 21.1416C59.5039 20.5984 58.6194 20.4704 57.8613 20.8691L57.8496 20.875L25.3555 38.5166C24.5916 38.9249 24.19 39.7762 24.3506 40.6201C24.4839 41.325 24.542 42.0348 24.542 42.709C24.542 43.383 24.4839 44.0921 24.3506 44.7969C24.19 45.6407 24.5918 46.491 25.3555 46.8994V46.9004L57.8496 64.5625L57.8613 64.5684C58.6053 64.9597 59.528 64.8544 60.1484 64.2754L60.1533 64.2705C62.3474 62.1919 65.1906 61.0586 68.1895 61.0586C74.6285 61.0588 79.8779 66.3089 79.8779 72.748C79.8779 79.208 74.628 84.458 68.168 84.458C61.7081 84.4578 56.459 79.2079 56.459 72.748C56.459 72.0541 56.5161 71.3656 56.6494 70.6602C56.8103 69.8156 56.4086 68.9637 55.6436 68.5557H55.6445L23.168 50.9248H23.1689C22.8705 50.7543 22.5387 50.6739 22.2148 50.6738C21.7016 50.6738 21.2467 50.8836 20.9082 51.1543L20.877 51.1797L20.8477 51.207C18.6536 53.2856 15.8104 54.418 12.8115 54.418C6.35169 54.4179 1.10182 49.1688 1.10156 42.709C1.10156 36.2502 6.35059 30.9978 12.8125 30.9775C15.7873 30.9778 18.6531 32.1299 20.8506 34.1924L20.8633 34.2041L20.876 34.2148C21.4583 34.7242 22.2719 34.8684 22.9961 34.5557L23.1396 34.4873L23.1504 34.4814L55.6543 16.8662L55.6553 16.8672C56.3782 16.4865 56.7801 15.7103 56.6943 14.916L56.6709 14.7568C56.5377 14.0521 56.4795 13.343 56.4795 12.6689C56.4795 6.20895 61.7295 0.958984 68.1895 0.958984Z" stroke="white" stroke-opacity="0.5" stroke-width="1.9185"/>
<defs>
<filter id="filter0_i_144_509" x="0.142578" y="0" width="80.7148" height="85.417" filterUnits="userSpaceOnUse" color-interpolation-filters="sRGB">
<feFlood flood-opacity="0" result="BackgroundImageFix"/>
<feBlend mode="normal" in="SourceGraphic" in2="BackgroundImageFix" result="shape"/>
<feColorMatrix in="SourceAlpha" type="matrix" values="0 0 0 0 0 0 0 0 0 0 0 0 0 0 0 0 0 0 127 0" result="hardAlpha"/>
<feMorphology radius="44.1254" operator="dilate" in="SourceAlpha" result="effect1_innerShadow_144_509"/>
<feOffset dx="-1" dy="3"/>
<feGaussianBlur stdDeviation="3.65"/>
<feComposite in2="hardAlpha" operator="arithmetic" k2="-1" k3="1"/>
<feColorMatrix type="matrix" values="0 0 0 0 1 0 0 0 0 1 0 0 0 0 1 0 0 0 1 0"/>
<feBlend mode="normal" in2="shape" result="effect1_innerShadow_144_509"/>
</filter>
<linearGradient id="paint0_linear_144_509" x1="61.762" y1="-12.7073" x2="8.63763" y2="134.343" gradientUnits="userSpaceOnUse">
<stop stop-color="#71647A"/>
<stop offset="1"/>
</linearGradient>
</defs>
</svg>
